HIERARCHY
ROOT Hips
{
	OFFSET 0.000000 0.000000 0.000000
	CHANNELS 6 Xposition Yposition Zposition Xrotation Yrotation Zrotation
	JOINT LeftUpLeg_virtual
	{
		OFFSET 0.000000 0.000000 0.000000
		CHANNELS 3 Xrotation Yrotation Zrotation
		JOINT LeftUpLeg
		{
			OFFSET 11.394100 -6.187798 -0.413800
			CHANNELS 3 Xrotation Yrotation Zrotation
			JOINT LeftLeg
			{
				OFFSET 0.430247 -32.302673 3.732800
				CHANNELS 3 Xrotation Yrotation Zrotation
				JOINT LeftFoot
				{
					OFFSET -0.430247 -48.264931 -6.423300
					CHANNELS 3 Xrotation Yrotation Zrotation
					JOINT LeftToeBase
					{
						OFFSET 4.230900 -16.068199 23.438400
						CHANNELS 3 Xrotation Yrotation Zrotation
						JOINT LeftToe_End
						{
							OFFSET 4.510700 0.695400 19.974600
							CHANNELS 3 Xrotation Yrotation Zrotation
							End Site
							{
								OFFSET 0 0 0
							}
						}
					}
				}
			}
		}
	}
	JOINT RightUpLeg_virtual
	{
		OFFSET 0.000000 0.000000 0.000000
		CHANNELS 3 Xrotation Yrotation Zrotation
		JOINT RightUpLeg
		{
			OFFSET -11.333700 -6.187798 -0.413800
			CHANNELS 3 Xrotation Yrotation Zrotation
			JOINT RightLeg
			{
				OFFSET -0.430392 -32.302628 3.733000
				CHANNELS 3 Xrotation Yrotation Zrotation
				JOINT RightFoot
				{
					OFFSET 0.430392 -48.264973 -6.423500
					CHANNELS 3 Xrotation Yrotation Zrotation
					JOINT RightToeBase
					{
						OFFSET -4.230900 -16.068199 23.438400
						CHANNELS 3 Xrotation Yrotation Zrotation
						JOINT RightToe_End
						{
							OFFSET -4.510700 0.695400 19.974600
							CHANNELS 3 Xrotation Yrotation Zrotation
							End Site
							{
								OFFSET 0 0 0
							}
						}
					}
				}
			}
		}
	}
	JOINT Spine_virtual
	{
		OFFSET 0.000000 0.000000 0.000000
		CHANNELS 3 Xrotation Yrotation Zrotation
		JOINT Spine
		{
			OFFSET -0.002400 12.777504 0.315300
			CHANNELS 3 Xrotation Yrotation Zrotation
			JOINT Spine1
			{
				OFFSET -0.002067 5.816869 0.032633
				CHANNELS 3 Xrotation Yrotation Zrotation
				JOINT Spine1_split
				{
					OFFSET -0.002067 5.816869 0.032633
					CHANNELS 3 Xrotation Yrotation Zrotation
					JOINT Spine2
					{
						OFFSET -0.002067 5.816869 0.032633
						CHANNELS 3 Xrotation Yrotation Zrotation
						JOINT Neck_virtual
						{
							OFFSET 0.000000 0.000000 0.000000
							CHANNELS 3 Xrotation Yrotation Zrotation
							JOINT Neck
							{
								OFFSET -0.003700 21.199493 -0.826900
								CHANNELS 3 Xrotation Yrotation Zrotation
								JOINT Head
								{
									OFFSET 0.000000 20.442200 4.834800
									CHANNELS 3 Xrotation Yrotation Zrotation
									JOINT HeadTop_End
									{
										OFFSET 0.000000 34.668396 4.968400
										CHANNELS 3 Xrotation Yrotation Zrotation
										End Site
										{
											OFFSET 0 0 0
										}
									}
								}
							}
						}
						JOINT LeftShoulder_virtual
						{
							OFFSET 0.000000 0.000000 0.000000
							CHANNELS 3 Xrotation Yrotation Zrotation
							JOINT LeftShoulder
							{
								OFFSET 3.288150 8.794197 -1.372250
								CHANNELS 3 Xrotation Yrotation Zrotation
								JOINT LeftShoulder_split
								{
									OFFSET 3.288150 8.794197 -1.372250
									CHANNELS 3 Xrotation Yrotation Zrotation
									JOINT LeftArm
									{
										OFFSET 11.953299 -2.279007 -0.146200
										CHANNELS 3 Xrotation Yrotation Zrotation
										JOINT LeftForeArm
										{
											OFFSET 18.448900 0.000000 0.000000
											CHANNELS 3 Xrotation Yrotation Zrotation
											JOINT LeftHand
											{
												OFFSET 29.527798 0.000000 0.000000
												CHANNELS 3 Xrotation Yrotation Zrotation
												End Site
												{
													OFFSET 0 0 0
												}
											}
										}
									}
								}
							}
						}
						JOINT RightShoulder_virtual
						{
							OFFSET 0.000000 0.000000 0.000000
							CHANNELS 3 Xrotation Yrotation Zrotation
							JOINT RightShoulder
							{
								OFFSET -3.249400 8.794197 -1.372250
								CHANNELS 3 Xrotation Yrotation Zrotation
								JOINT RightShoulder_split
								{
									OFFSET -3.249400 8.794197 -1.372250
									CHANNELS 3 Xrotation Yrotation Zrotation
									JOINT RightArm
									{
										OFFSET -11.953299 -2.279007 -0.146200
										CHANNELS 3 Xrotation Yrotation Zrotation
										JOINT RightForeArm
										{
											OFFSET -18.448900 0.000000 0.000000
											CHANNELS 3 Xrotation Yrotation Zrotation
											JOINT RightHand
											{
												OFFSET -29.527802 0.000000 0.000000
												CHANNELS 3 Xrotation Yrotation Zrotation
												End Site
												{
													OFFSET 0 0 0
												}
											}
										}
									}
								}
							}
						}
					}
				}
			}
		}
	}
}
MOTION
Frames: 7
Frame Time: 0.03333333
-1.386152 97.132133 -15.254856 0.000000 0.000000 0.000000 -0.817240 1.276019 4.123223 -25.665092 21.257909 5.851084 30.077438 8.299776 0.390393 -4.441572 5.976065 -3.207880 4.155499 -1.016668 1.610223 0.000000 0.000000 0.000000 -0.549798 2.726664 3.935874 -11.749287 -11.084573 -11.287653 27.784154 4.954880 -2.456921 -17.538722 -7.103428 17.470593 10.053968 5.337620 -21.709845 0.000000 0.000000 0.000000 -3.729203 13.200996 2.553387 1.745827 1.587134 -5.102883 3.075126 -0.791298 0.733648 0.144698 0.196572 -0.175123 0.000000 0.000000 0.000000 4.727263 2.241683 1.128519 0.393860 -1.940570 -0.136349 -9.368801 -26.918346 -8.726669 0.000000 0.000000 0.000000 3.326864 0.390677 0.735066 0.604164 -6.948958 -2.130543 -4.609739 -5.151360 -0.974698 -13.173791 10.283473 -65.642564 1.939756 -42.390230 -2.205697 0.000000 0.000000 0.000000 5.114713 0.653576 0.905565 4.666581 10.720815 -5.995071 1.402700 2.054072 1.257280 -2.814396 -5.388992 65.648274 -7.326362 42.958926 13.606868 0.000000 0.000000 0.000000 
-1.532242 97.120293 -15.391479 0.000000 0.000000 0.000000 -0.853244 1.534054 4.099194 -25.862725 20.785978 5.895709 30.335886 8.344808 0.391783 -4.189154 6.144326 -3.297326 4.268287 -1.002144 1.546576 0.000000 0.000000 0.000000 -0.477940 2.669836 3.952769 -11.963395 -11.431401 -11.251058 27.486394 4.781412 -2.458668 -17.415884 -7.174415 17.640068 9.849298 5.403872 -21.767951 0.000000 0.000000 0.000000 -3.599128 12.754356 2.746520 1.780582 1.484011 -5.143642 3.018972 -0.834680 0.725828 0.143990 0.188497 -0.166578 0.000000 0.000000 0.000000 4.898136 2.210562 1.125636 0.569229 -1.804648 -0.112729 -9.668853 -26.384075 -8.979813 0.000000 0.000000 0.000000 3.470300 0.352429 0.789649 0.578987 -7.113407 -2.243413 -3.987332 -6.000168 -0.503174 -13.696259 9.909573 -65.668280 1.960617 -42.744355 -2.168004 0.000000 0.000000 0.000000 5.153528 0.583120 0.915869 4.699318 10.907845 -5.959885 1.066886 1.522552 1.172824 -2.663893 -5.282087 65.596242 -7.412008 43.155509 13.707423 0.000000 0.000000 0.000000 
-1.757155 97.075714 -15.671684 0.000000 0.000000 0.000000 -0.812909 1.763647 3.937868 -26.308685 20.025387 6.036273 30.475891 8.538476 0.439866 -3.942439 6.596928 -3.381947 4.467155 -0.966558 1.398596 0.000000 0.000000 0.000000 -0.265058 2.648717 3.804563 -12.401816 -11.652217 -11.157122 27.421092 4.760427 -2.514501 -17.286908 -7.121889 17.983060 9.653612 5.566611 -21.785117 0.000000 0.000000 0.000000 -3.318249 12.143237 2.889981 1.922149 1.380571 -5.087271 3.035046 -0.912321 0.718530 0.169072 0.176252 -0.139552 0.000000 0.000000 0.000000 5.085665 2.127836 1.118843 0.777717 -1.445458 -0.151714 -9.807191 -24.615408 -8.837214 0.000000 0.000000 0.000000 3.676585 0.266129 0.821753 0.499716 -7.238419 -2.245032 -3.212282 -6.569334 -0.092283 -14.275858 9.166084 -65.731582 2.119802 -42.592144 -1.950963 0.000000 0.000000 0.000000 5.294106 0.469717 0.925916 4.704882 10.988760 -6.166231 0.708099 1.136328 1.029163 -2.422683 -5.283170 65.468108 -7.277699 43.003619 13.529235 0.000000 0.000000 0.000000 
-1.973208 96.969643 -16.082844 0.000000 0.000000 0.000000 -0.661577 1.865076 3.658451 -26.943659 19.117114 6.270753 30.605733 8.851476 0.498873 -3.801235 7.283917 -3.450607 4.775523 -0.913534 1.120160 0.000000 0.000000 0.000000 0.029580 2.557741 3.503920 -13.045817 -11.688767 -11.019691 27.689134 4.788983 -2.604394 -17.341789 -6.977034 18.193320 9.602660 5.773141 -21.679871 0.000000 0.000000 0.000000 -2.866824 11.379991 2.946439 2.195207 1.263727 -4.959664 3.116171 -1.038026 0.719252 0.196886 0.154936 -0.105733 0.000000 0.000000 0.000000 5.262853 1.972311 1.122286 0.988631 -0.873942 -0.154942 -9.798399 -21.550895 -8.290198 0.000000 0.000000 0.000000 3.916948 0.107058 0.851114 0.375891 -7.266258 -2.137988 -2.563972 -6.720368 0.265988 -14.856696 8.354957 -65.840811 2.390092 -42.085143 -1.550963 0.000000 0.000000 0.000000 5.540898 0.297539 0.933917 4.657505 11.014833 -6.605690 0.254982 0.916559 0.892838 -2.170608 -5.462123 65.366474 -6.951579 42.535563 13.092123 0.000000 0.000000 0.000000 
-2.178779 96.807617 -16.527706 0.000000 0.000000 0.000000 -0.337070 1.711380 3.329781 -27.737345 18.151984 6.640091 30.896217 9.237833 0.523052 -3.798195 8.039748 -3.554052 5.092940 -0.859174 0.804468 0.000000 0.000000 0.000000 0.409291 2.323650 3.130302 -13.899089 -11.485428 -10.859891 28.221520 4.739950 -2.698648 -17.478162 -6.779495 18.122717 9.580187 6.018330 -21.394340 0.000000 0.000000 0.000000 -2.319159 10.517290 2.897899 2.627431 1.116768 -4.800090 3.253296 -1.235204 0.742247 0.194701 0.125612 -0.086553 0.000000 0.000000 0.000000 5.418404 1.740823 1.147105 1.176542 -0.133588 0.034210 -9.794624 -17.238631 -7.374186 0.000000 0.000000 0.000000 4.179524 -0.142815 0.899078 0.240962 -7.236795 -1.990294 -2.035002 -6.604470 0.671927 -15.464503 7.857978 -65.906647 2.797816 -41.418031 -0.922258 0.000000 0.000000 0.000000 5.859170 0.060492 0.947219 4.512679 11.007060 -7.208571 -0.259972 0.874960 1.008205 -1.917500 -5.697181 65.265381 -6.479368 41.883283 12.430606 0.000000 0.000000 0.000000 
-2.374793 96.590866 -17.007187 0.000000 0.000000 0.000000 0.185937 1.294672 2.987132 -28.667537 17.199390 7.158015 31.493456 9.595494 0.495453 -3.937525 8.661824 -3.701601 5.172782 -0.829635 0.675759 0.000000 0.000000 0.000000 0.887433 1.953794 2.754963 -15.088846 -11.000982 -10.723178 29.005645 4.658541 -2.793392 -17.392191 -6.437551 17.919628 9.361631 6.289989 -20.990549 0.000000 0.000000 0.000000 -1.691522 9.524978 2.706617 3.251200 0.920441 -4.626202 3.420404 -1.513624 0.791553 0.161864 0.112124 -0.060536 0.000000 0.000000 0.000000 5.560201 1.437272 1.195212 1.328143 0.673493 0.522767 -9.982287 -11.904490 -6.163687 0.000000 0.000000 0.000000 4.468622 -0.473943 0.977192 0.142430 -7.236973 -1.863420 -1.720130 -6.424814 1.044759 -16.073658 7.949044 -65.794147 3.258395 -40.654884 -0.149326 0.000000 0.000000 0.000000 6.230677 -0.236916 0.980590 4.247546 11.012604 -7.834100 -0.877293 0.917479 1.299946 -1.507471 -5.879853 65.187810 -5.917991 41.219126 11.614055 0.000000 0.000000 0.000000 
-2.565900 96.335358 -17.586544 0.000000 0.000000 0.000000 0.917173 0.561286 2.669574 -29.726226 16.307203 7.856642 32.332770 9.873269 0.417052 -4.192436 9.034841 -3.888632 4.969882 -0.832577 0.841638 0.000000 0.000000 0.000000 1.510533 1.430686 2.459231 -16.767875 -10.194600 -10.697970 29.910860 4.724234 -2.893431 -16.816508 -5.842831 17.943166 8.866915 6.556057 -20.681693 0.000000 0.000000 0.000000 -0.944128 8.454635 2.375373 4.094167 0.682703 -4.425133 3.630050 -1.830577 0.871021 0.117201 0.114249 -0.036543 0.000000 0.000000 0.000000 5.721320 1.089784 1.264030 1.490150 1.493317 1.408455 -10.577742 -5.981792 -4.827469 0.000000 0.000000 0.000000 4.772223 -0.852289 1.068956 0.101906 -7.370971 -1.804190 -1.735979 -6.121380 1.348025 -16.545220 8.597717 -65.339181 3.659079 -39.699091 0.605039 0.000000 0.000000 0.000000 6.626884 -0.558768 1.035774 3.868673 11.080987 -8.339015 -1.476195 0.887457 1.648523 -0.826101 -6.042634 65.104612 -5.361225 40.676324 10.772369 0.000000 0.000000 0.000000 
